HIERARCHY
ROOT Hips
{
	OFFSET 0.00000 0.00000 0.00000
	CHANNELS 6 Xposition Yposition Zposition Zrotation Yrotation Xrotation 
	JOINT LHipJoint
	{
		OFFSET 0 0 0
		CHANNELS 3 Zrotation Yrotation Xrotation
		JOINT LeftHip
		{
			OFFSET 1.55766 -1.60504 1.11378
			CHANNELS 3 Zrotation Yrotation Xrotation
			JOINT LeftKnee
			{
				OFFSET 2.29047 -6.29302 0.00000
				CHANNELS 3 Zrotation Yrotation Xrotation
				JOINT LeftAnkle
				{
					OFFSET 2.52265 -6.93093 0.00000
					CHANNELS 3 Zrotation Yrotation Xrotation
					JOINT LeftToe
					{
						OFFSET 0.17633 -0.48446 2.02656
						CHANNELS 3 Zrotation Yrotation Xrotation
						End Site
						{
							OFFSET 0.00000 -0.00000 1.04989
						}
					}
				}
			}
		}
	}
	JOINT RHipJoint
	{
		OFFSET 0 0 0
		CHANNELS 3 Zrotation Yrotation Xrotation
		JOINT RightHip
		{
			OFFSET -1.48599 -1.60504 1.11378
			CHANNELS 3 Zrotation Yrotation Xrotation
			JOINT RightKnee
			{
				OFFSET -2.27280 -6.24448 0.00000
				CHANNELS 3 Zrotation Yrotation Xrotation
				JOINT RightAnkle
				{
					OFFSET -2.50834 -6.89161 0.00000
					CHANNELS 3 Zrotation Yrotation Xrotation
					JOINT RightToe
					{
						OFFSET -0.26967 -0.74090 2.08741
						CHANNELS 3 Zrotation Yrotation Xrotation
						End Site
						{
							OFFSET -0.00000 -0.00000 1.10614
						}
					}
				}
			}
		}
	}
	JOINT lowerback
	{
		OFFSET 0 0 0
		CHANNELS 3 Zrotation Yrotation Xrotation
		JOINT Chest
		{
			OFFSET 0.06481 2.02437 -0.08472
			CHANNELS 3 Zrotation Yrotation Xrotation
			JOINT Chest2
			{
				OFFSET 0.00015 1.96711 0.18069
				CHANNELS 3 Zrotation Yrotation Xrotation
				JOINT lowerneck
				{
					OFFSET 0 0 0
					CHANNELS 3 Zrotation Yrotation Xrotation
					JOINT Neck
					{
						OFFSET -0.29961 1.68293 -0.13041
						CHANNELS 3 Zrotation Yrotation Xrotation
						JOINT Head
						{
							OFFSET 0.59697 1.61501 -0.14669
							CHANNELS 3 Zrotation Yrotation Xrotation
							End Site
							{
								OFFSET 0.22973 1.74906 -0.10148
							}
						}
					}
				}
				JOINT LeftCollar
				{
					OFFSET 0 0 0
					CHANNELS 3 Zrotation Yrotation Xrotation
					JOINT LeftShoulder
					{
						OFFSET 3.37968 1.02893 0.31147
CHANNELS 3 Zrotation Xrotation Yrotation
						JOINT LeftElbow
						{
OFFSET 0 -5.198070 -0.000000
CHANNELS 3 Zrotation Xrotation Yrotation
							JOINT LeftWrist
							{
OFFSET 0 -3.093700 -0.000000
CHANNELS 3 Zrotation Xrotation Yrotation
								JOINT lhand
								{
									OFFSET 0 0 0
CHANNELS 3 Zrotation Xrotation Yrotation
									JOINT LFingers
									{
OFFSET 0 -0.672630 -0.000000
CHANNELS 3 Zrotation Xrotation Yrotation
										End Site
										{
OFFSET 0 -0.542290 -0.000000
										}
									}
								}
								JOINT LThumb
								{
OFFSET 0 0.000000 0.000000
CHANNELS 3 Zrotation Xrotation Yrotation
									End Site
									{
OFFSET 0 -0.550570 0.550570
									}
								}
							}
						}
					}
				}
				JOINT RightCollar
				{
					OFFSET 0 0 0
					CHANNELS 3 Zrotation Yrotation Xrotation
					JOINT RightShoulder
					{
						OFFSET -3.38254 0.96355 -0.16120
CHANNELS 3 Zrotation Xrotation Yrotation
						JOINT RightElbow
						{
OFFSET 0 -5.452220 -0.000000
CHANNELS 3 Zrotation Xrotation Yrotation
							JOINT RightWrist
							{
OFFSET 0 -3.012840 -0.000000
CHANNELS 3 Zrotation Xrotation Yrotation
								JOINT rhand
								{
									OFFSET 0 0 0
CHANNELS 3 Zrotation Xrotation Yrotation
									JOINT RFingers
									{
OFFSET 0 -0.622300 -0.000000
CHANNELS 3 Zrotation Xrotation Yrotation
										End Site
										{
OFFSET 0 -0.501710 -0.000000
										}
									}
								}
								JOINT RThumb
								{
OFFSET 0 0.000000 0.000000
CHANNELS 3 Zrotation Xrotation Yrotation
									End Site
									{
OFFSET 0 -0.509370 0.509370
									}
								}
							}
						}
					}
				}
			}
		}
	}
}
MOTION
Frames: 7
Frame Time: 0.008333333333333333
6.700900 15.822100 38.066400 -179.757000 -23.581300 -165.789000 0.000000 0.000000 0.000000 -9.786700 -4.096500 -24.199800 6.815400 15.174400 48.172500 -0.471200 12.595100 -0.751700 3.414300 -11.337300 -33.425900 0.000000 0.000000 0.000000 22.862200 10.836400 -16.622600 -1.759200 -8.345300 23.768000 0.380300 21.898400 -12.378000 -0.027600 1.071500 -2.945600 6.625300 3.519700 -7.928700 -1.860400 3.789700 -6.760800 -5.399300 1.400000 -2.046200 -32.681300 -3.775800 8.494000 42.562400 -10.693700 -3.909600 24.102700 -7.499000 2.191700 0.000000 -0.000000 0.000000 4.689600 21.235700 -30.820200 38.306800 -47.034100 17.189700 11.505600 -31.197800 7.075200 0.000000 0.000000 0.000000 -7.125000 0.000000 0.000000 -11.162100 22.795200 -6.078300 0.000000 -0.000000 0.000000 -5.001200 27.240300 41.812300 -32.337000 -42.814200 -12.969300 -10.304100 5.031400 5.638200 0.000000 0.000000 0.000000 7.125000 0.000000 -0.000000 13.615200 35.429600 3.277900
6.688658 15.831121 38.033979 -179.848591 -22.851328 -165.807705 0.000000 0.000000 0.000000 -9.803112 -4.642161 -24.683030 7.195404 15.493378 49.607976 -0.458237 12.529866 -0.404294 3.499493 -11.462455 -33.856271 0.000000 0.000000 0.000000 22.735090 10.899463 -16.243404 -1.712093 -8.238694 23.441469 0.452295 22.455989 -12.260712 -0.028836 1.032286 -2.838315 6.768844 3.566317 -7.941325 -1.984781 3.838498 -6.760590 -5.606594 1.416342 -2.016941 -32.765131 -3.825157 9.238686 42.636434 -10.792925 -4.861714 24.219251 -7.625648 1.853000 0.000000 0.000000 0.000000 4.755833 22.289527 -30.461576 41.990314 -49.192478 19.937283 11.297551 -32.447217 7.642927 0.000000 0.000000 0.000000 -7.125000 0.000000 0.000000 -11.276656 22.233773 -6.290932 0.000000 0.000000 0.000000 -5.709097 28.459527 42.833742 -33.991838 -44.075802 -14.108394 -10.132450 4.517735 5.089029 0.000000 0.000000 0.000000 7.125000 0.000000 0.000000 13.654408 34.879070 3.475828
6.681205 15.833476 38.003492 -179.769643 -22.111130 -165.932773 0.000000 0.000000 0.000000 -9.605407 -5.181894 -25.207574 7.613462 15.826803 51.157032 -0.433921 12.763832 1.038697 2.933961 -10.585877 -30.897015 0.000000 0.000000 0.000000 22.808650 11.156081 -15.799179 -1.678075 -8.160696 23.203166 0.527497 22.725322 -11.867781 -0.011958 0.704911 -1.937172 6.966930 3.515863 -7.818468 -1.978831 3.770886 -6.734694 -5.723021 1.375446 -2.057592 -32.927683 -3.890632 9.695563 42.703851 -10.883064 -5.663838 24.346566 -7.722842 1.618284 0.000000 0.000000 0.000000 4.570238 23.126040 -29.734906 45.544212 -51.023840 22.663480 11.437786 -34.072925 8.073047 0.000000 0.000000 0.000000 -7.125000 0.000000 0.000000 -11.149845 21.799076 -6.329972 0.000000 0.000000 0.000000 -6.574815 29.299317 43.891943 -35.194902 -44.949510 -14.951339 -10.009057 4.157414 5.125808 0.000000 0.000000 0.000000 7.125000 0.000000 0.000000 13.760988 34.909331 3.493868
6.672649 15.830755 37.974997 -179.676284 -21.341071 -166.084868 0.000000 0.000000 0.000000 -9.401953 -5.653286 -25.767864 8.062389 16.164490 52.786351 -0.388928 12.628296 2.037883 2.599032 -10.014783 -29.025458 0.000000 0.000000 0.000000 22.890421 11.467369 -15.352994 -1.657940 -8.114035 23.060866 0.569156 22.938156 -11.711871 -0.007450 0.558041 -1.533349 7.184338 3.490900 -7.666064 -1.988488 3.738006 -6.726920 -5.865901 1.348630 -2.127131 -33.032556 -3.929562 10.253109 42.778216 -10.973720 -6.454823 24.480204 -7.831798 1.359736 0.000000 0.000000 0.000000 4.394482 23.946695 -29.020088 49.204217 -52.664195 25.541448 11.666380 -35.663638 8.425588 0.000000 0.000000 0.000000 -7.125000 0.000000 0.000000 -10.965885 21.438211 -6.313301 0.000000 0.000000 0.000000 -7.401825 30.092446 44.854161 -36.284879 -45.707551 -15.726253 -9.880168 3.681693 5.098391 0.000000 0.000000 0.000000 7.125000 0.000000 0.000000 13.860336 34.876064 3.531941
6.664787 15.819775 37.949532 -179.516801 -20.551739 -166.293322 0.000000 0.000000 0.000000 -9.128299 -6.085804 -26.363857 8.542772 16.503200 54.493182 -0.328362 12.187342 2.828487 2.338654 -9.537663 -27.492711 0.000000 0.000000 0.000000 23.049658 11.907707 -14.875918 -1.655271 -8.107749 23.041788 0.555790 22.974014 -11.860086 -0.010683 0.665236 -1.828061 7.422087 3.466537 -7.454248 -1.971625 3.711402 -6.728752 -5.995148 1.322614 -2.239797 -33.099365 -3.935794 10.857678 42.861051 -11.052691 -7.188368 24.628824 -7.942060 1.096257 0.000000 0.000000 0.000000 4.172132 24.670396 -28.259239 52.737823 -54.033591 28.377820 12.084218 -37.233025 8.668571 0.000000 0.000000 0.000000 -7.125000 0.000000 0.000000 -10.654180 21.178738 -6.191139 0.000000 0.000000 0.000000 -8.192249 30.707514 45.675052 -37.051715 -46.222366 -16.277500 -9.743405 3.103394 5.122687 0.000000 0.000000 0.000000 7.125000 0.000000 0.000000 13.975498 34.893233 3.556750
6.656949 15.801290 37.926397 -179.316905 -19.745807 -166.545457 0.000000 0.000000 0.000000 -8.815662 -6.496883 -26.975175 9.042979 16.834951 56.238089 -0.258035 11.292791 3.205475 2.175505 -9.222337 -26.493310 0.000000 0.000000 0.000000 23.254173 12.450449 -14.403924 -1.673232 -8.149320 23.168506 0.510488 22.931509 -12.204005 -0.019204 0.893072 -2.454795 7.655817 3.431508 -7.209099 -1.912965 3.678624 -6.698255 -6.078983 1.297832 -2.340920 -33.151779 -3.939336 11.414810 42.938339 -11.123968 -7.882181 24.772234 -8.043717 0.847602 0.000000 0.000000 0.000000 3.855299 25.215418 -27.440779 56.021502 -55.151277 31.053089 12.598182 -38.664633 8.852910 0.000000 0.000000 0.000000 -7.125000 0.000000 0.000000 -10.277806 20.972519 -6.014060 0.000000 0.000000 0.000000 -8.993075 31.075476 46.389032 -37.502525 -46.518612 -16.603682 -9.557383 2.469753 5.149552 0.000000 0.000000 0.000000 7.125000 0.000000 0.000000 14.131045 34.910447 3.592323
6.648345 15.775583 37.904184 -179.065481 -18.902031 -166.863297 0.000000 0.000000 0.000000 -8.459822 -6.878926 -27.551201 9.543684 17.144343 57.950931 -0.178297 9.709004 3.096636 2.105412 -9.082212 -26.052835 0.000000 0.000000 0.000000 23.513415 13.144377 -13.946183 -1.720834 -8.258471 23.501975 0.450848 22.856440 -12.633363 -0.026801 1.056020 -2.903048 7.885371 3.394483 -6.926306 -1.808003 3.652662 -6.627714 -6.111610 1.281987 -2.422884 -33.178426 -3.944848 11.931655 43.001352 -11.186535 -8.555724 24.898511 -8.135581 0.604949 0.000000 0.000000 0.000000 3.455349 25.557298 -26.598231 58.903298 -56.006953 33.430995 13.172702 -39.888686 9.010304 0.000000 0.000000 0.000000 -7.125000 0.000000 0.000000 -9.860528 20.788991 -5.803825 0.000000 0.000000 0.000000 -9.780404 31.167390 46.963870 -37.595702 -46.579133 -16.671356 -9.218473 1.877558 5.199307 0.000000 0.000000 0.000000 7.125000 0.000000 0.000000 14.414392 34.942445 3.656631
